<svg width="236" height="24" viewBox="0 0 236 24" fill="none" xmlns="http://www.w3.org/2000/svg">
<path d="M0.488281 1.63086H4.84961V23H0.488281V1.63086ZM9.88086 6.86719H13.9277V8.23438C15.0033 7.6237 16.0286 7.19531 17.0039 6.94922C17.9883 6.70312 18.9499 6.58008 19.8887 6.58008C21.1191 6.58008 22.2585 6.76237 23.3066 7.12695C24.3548 7.48242 25.2617 8.01562 26.0273 8.72656C26.793 9.4375 27.39 10.3262 27.8184 11.3926C28.2559 12.4499 28.4746 13.6758 28.4746 15.0703V23H24.4414V15.7266C24.4414 14.8424 24.3138 14.054 24.0586 13.3613C23.8125 12.6595 23.4525 12.0716 22.9785 11.5977C22.5137 11.1146 21.944 10.75 21.2695 10.5039C20.6042 10.2487 19.8568 10.1211 19.0273 10.1211C18.5898 10.1211 18.1387 10.1667 17.6738 10.2578C17.2181 10.349 16.7669 10.4811 16.3203 10.6543C15.8828 10.8184 15.459 11.028 15.0488 11.2832C14.6387 11.5293 14.265 11.8118 13.9277 12.1309V23H9.88086V6.86719ZM32.207 15.002C32.207 13.7168 32.4486 12.5592 32.9316 11.5293C33.4147 10.4902 34.0801 9.60612 34.9277 8.87695C35.7845 8.13867 36.7962 7.57357 37.9629 7.18164C39.1387 6.7806 40.4102 6.58008 41.7773 6.58008C42.3607 6.58008 42.9349 6.61654 43.5 6.68945C44.0742 6.76237 44.6211 6.86263 45.1406 6.99023C45.6693 7.11784 46.1615 7.27279 46.6172 7.45508C47.082 7.62826 47.4922 7.81966 47.8477 8.0293V0.318359H51.8945V23H47.8477V21.4824C47.4922 21.7285 47.0729 21.9609 46.5898 22.1797C46.1068 22.3984 45.5872 22.5898 45.0312 22.7539C44.4753 22.918 43.8965 23.0456 43.2949 23.1367C42.7025 23.237 42.1146 23.2871 41.5312 23.2871C40.1641 23.2871 38.9062 23.0866 37.7578 22.6855C36.6185 22.2845 35.6387 21.7194 34.8184 20.9902C33.998 20.2611 33.3555 19.3906 32.8906 18.3789C32.4349 17.3581 32.207 16.2324 32.207 15.002ZM36.459 15.002C36.459 15.6491 36.5866 16.2598 36.8418 16.834C37.1061 17.4082 37.4798 17.9141 37.9629 18.3516C38.4551 18.7799 39.043 19.1217 39.7266 19.377C40.4193 19.623 41.194 19.7461 42.0508 19.7461C42.5977 19.7461 43.1445 19.696 43.6914 19.5957C44.2383 19.4863 44.7624 19.3359 45.2637 19.1445C45.7741 18.9531 46.248 18.7207 46.6855 18.4473C47.1322 18.1738 47.5195 17.8685 47.8477 17.5312V11.9395C47.4375 11.6113 47.0046 11.3333 46.5488 11.1055C46.0931 10.8776 45.6283 10.6908 45.1543 10.5449C44.6803 10.3991 44.2018 10.2943 43.7188 10.2305C43.2357 10.1576 42.7663 10.1211 42.3105 10.1211C41.3809 10.1211 40.5514 10.2487 39.8223 10.5039C39.1022 10.75 38.4915 11.0918 37.9902 11.5293C37.498 11.9668 37.1198 12.4818 36.8555 13.0742C36.5911 13.6667 36.459 14.3092 36.459 15.002ZM58.9902 4.66602C58.5892 4.66602 58.2246 4.61133 57.8965 4.50195C57.5775 4.38346 57.304 4.22852 57.0762 4.03711C56.8483 3.83659 56.6706 3.60872 56.543 3.35352C56.4245 3.08919 56.3652 2.8112 56.3652 2.51953C56.3652 2.21875 56.4245 1.94076 56.543 1.68555C56.6706 1.42122 56.8483 1.19336 57.0762 1.00195C57.304 0.810547 57.5775 0.660156 57.8965 0.550781C58.2246 0.432292 58.5892 0.373047 58.9902 0.373047C59.4004 0.373047 59.765 0.432292 60.084 0.550781C60.4121 0.660156 60.6901 0.810547 60.918 1.00195C61.1458 1.19336 61.319 1.42122 61.4375 1.68555C61.5651 1.94076 61.6289 2.21875 61.6289 2.51953C61.6289 2.8112 61.5651 3.08919 61.4375 3.35352C61.319 3.60872 61.1458 3.83659 60.918 4.03711C60.6901 4.22852 60.4121 4.38346 60.084 4.50195C59.765 4.61133 59.4004 4.66602 58.9902 4.66602ZM56.9668 6.86719H61.0137V23H56.9668V6.86719ZM65.4434 14.8789C65.4434 13.7852 65.6667 12.7415 66.1133 11.748C66.5599 10.7454 67.2025 9.86133 68.041 9.0957C68.8796 8.33008 69.9049 7.7194 71.1172 7.26367C72.3385 6.80794 73.724 6.58008 75.2734 6.58008C76.8138 6.58008 78.1992 6.8125 79.4297 7.27734C80.6693 7.73307 81.7174 8.36198 82.5742 9.16406C83.4401 9.96615 84.1009 10.9095 84.5566 11.9941C85.0215 13.0788 85.2539 14.2409 85.2539 15.4805C85.2539 15.6354 85.2493 15.804 85.2402 15.9863C85.2402 16.1595 85.2311 16.319 85.2129 16.4648H69.9551C70.1283 16.9479 70.4062 17.39 70.7891 17.791C71.181 18.1921 71.6686 18.5384 72.252 18.8301C72.8353 19.1217 73.5098 19.3496 74.2754 19.5137C75.041 19.6686 75.8887 19.7461 76.8184 19.7461C77.748 19.7461 78.6732 19.6504 79.5938 19.459C80.5143 19.2585 81.3939 19.0078 82.2324 18.707L83.5996 21.7969C83.071 22.043 82.5332 22.2617 81.9863 22.4531C81.4486 22.6354 80.8835 22.7904 80.291 22.918C79.7077 23.0365 79.0924 23.1276 78.4453 23.1914C77.8073 23.2552 77.1328 23.2871 76.4219 23.2871C74.6081 23.2871 73.0176 23.0684 71.6504 22.6309C70.2832 22.1934 69.1393 21.5964 68.2188 20.8398C67.2982 20.0833 66.6055 19.1947 66.1406 18.1738C65.6758 17.153 65.4434 16.0547 65.4434 14.8789ZM80.9609 13.3066C80.8151 12.86 80.5872 12.4453 80.2773 12.0625C79.9766 11.6706 79.5983 11.3333 79.1426 11.0508C78.6868 10.7591 78.1582 10.5312 77.5566 10.3672C76.9551 10.2031 76.2943 10.1211 75.5742 10.1211C74.8086 10.1211 74.1113 10.2077 73.4824 10.3809C72.8535 10.554 72.3021 10.7865 71.8281 11.0781C71.3542 11.3698 70.9577 11.707 70.6387 12.0898C70.3288 12.4727 70.1009 12.8783 69.9551 13.3066H80.9609ZM98.1191 12.1855C98.1191 10.6634 98.4062 9.24609 98.9805 7.93359C99.5547 6.61198 100.384 5.4681 101.469 4.50195C102.562 3.52669 103.893 2.76107 105.461 2.20508C107.038 1.64909 108.82 1.37109 110.807 1.37109C112.548 1.37109 114.143 1.54883 115.592 1.9043C117.05 2.25065 118.404 2.78385 119.652 3.50391L117.656 6.78516C117.283 6.53906 116.85 6.32031 116.357 6.12891C115.874 5.9375 115.355 5.77799 114.799 5.65039C114.252 5.51367 113.682 5.40885 113.09 5.33594C112.507 5.26302 111.928 5.22656 111.354 5.22656C109.968 5.22656 108.733 5.39974 107.648 5.74609C106.564 6.08333 105.648 6.56185 104.9 7.18164C104.162 7.79232 103.597 8.52604 103.205 9.38281C102.822 10.2305 102.631 11.1647 102.631 12.1855C102.631 13.2428 102.831 14.2135 103.232 15.0977C103.633 15.9818 104.212 16.7474 104.969 17.3945C105.734 18.0326 106.664 18.5339 107.758 18.8984C108.861 19.2539 110.105 19.4316 111.49 19.4316C112.119 19.4316 112.743 19.3861 113.363 19.2949C113.983 19.2038 114.58 19.0807 115.154 18.9258C115.738 18.7617 116.298 18.5703 116.836 18.3516C117.374 18.1237 117.875 17.8776 118.34 17.6133L120.336 20.8945C119.169 21.6419 117.82 22.2298 116.289 22.6582C114.758 23.0775 113.131 23.2871 111.408 23.2871C109.212 23.2871 107.284 23.0046 105.625 22.4395C103.966 21.8652 102.581 21.0814 101.469 20.0879C100.357 19.0853 99.5182 17.9095 98.9531 16.5605C98.3971 15.2025 98.1191 13.7441 98.1191 12.1855ZM126.748 4.66602C126.347 4.66602 125.982 4.61133 125.654 4.50195C125.335 4.38346 125.062 4.22852 124.834 4.03711C124.606 3.83659 124.428 3.60872 124.301 3.35352C124.182 3.08919 124.123 2.8112 124.123 2.51953C124.123 2.21875 124.182 1.94076 124.301 1.68555C124.428 1.42122 124.606 1.19336 124.834 1.00195C125.062 0.810547 125.335 0.660156 125.654 0.550781C125.982 0.432292 126.347 0.373047 126.748 0.373047C127.158 0.373047 127.523 0.432292 127.842 0.550781C128.17 0.660156 128.448 0.810547 128.676 1.00195C128.904 1.19336 129.077 1.42122 129.195 1.68555C129.323 1.94076 129.387 2.21875 129.387 2.51953C129.387 2.8112 129.323 3.08919 129.195 3.35352C129.077 3.60872 128.904 3.83659 128.676 4.03711C128.448 4.22852 128.17 4.38346 127.842 4.50195C127.523 4.61133 127.158 4.66602 126.748 4.66602ZM124.725 6.86719H128.771V23H124.725V6.86719ZM133.967 6.86719H138.014V8.23438C139.089 7.6237 140.115 7.19531 141.09 6.94922C142.074 6.70312 143.036 6.58008 143.975 6.58008C145.205 6.58008 146.344 6.76237 147.393 7.12695C148.441 7.48242 149.348 8.01562 150.113 8.72656C150.879 9.4375 151.476 10.3262 151.904 11.3926C152.342 12.4499 152.561 13.6758 152.561 15.0703V23H148.527V15.7266C148.527 14.8424 148.4 14.054 148.145 13.3613C147.898 12.6595 147.538 12.0716 147.064 11.5977C146.6 11.1146 146.03 10.75 145.355 10.5039C144.69 10.2487 143.943 10.1211 143.113 10.1211C142.676 10.1211 142.225 10.1667 141.76 10.2578C141.304 10.349 140.853 10.4811 140.406 10.6543C139.969 10.8184 139.545 11.028 139.135 11.2832C138.725 11.5293 138.351 11.8118 138.014 12.1309V23H133.967V6.86719ZM156.771 14.8789C156.771 13.7852 156.995 12.7415 157.441 11.748C157.888 10.7454 158.531 9.86133 159.369 9.0957C160.208 8.33008 161.233 7.7194 162.445 7.26367C163.667 6.80794 165.052 6.58008 166.602 6.58008C168.142 6.58008 169.527 6.8125 170.758 7.27734C171.997 7.73307 173.046 8.36198 173.902 9.16406C174.768 9.96615 175.429 10.9095 175.885 11.9941C176.35 13.0788 176.582 14.2409 176.582 15.4805C176.582 15.6354 176.577 15.804 176.568 15.9863C176.568 16.1595 176.559 16.319 176.541 16.4648H161.283C161.456 16.9479 161.734 17.39 162.117 17.791C162.509 18.1921 162.997 18.5384 163.58 18.8301C164.163 19.1217 164.838 19.3496 165.604 19.5137C166.369 19.6686 167.217 19.7461 168.146 19.7461C169.076 19.7461 170.001 19.6504 170.922 19.459C171.842 19.2585 172.722 19.0078 173.561 18.707L174.928 21.7969C174.399 22.043 173.861 22.2617 173.314 22.4531C172.777 22.6354 172.212 22.7904 171.619 22.918C171.036 23.0365 170.421 23.1276 169.773 23.1914C169.135 23.2552 168.461 23.2871 167.75 23.2871C165.936 23.2871 164.346 23.0684 162.979 22.6309C161.611 22.1934 160.467 21.5964 159.547 20.8398C158.626 20.0833 157.934 19.1947 157.469 18.1738C157.004 17.153 156.771 16.0547 156.771 14.8789ZM172.289 13.3066C172.143 12.86 171.915 12.4453 171.605 12.0625C171.305 11.6706 170.926 11.3333 170.471 11.0508C170.015 10.7591 169.486 10.5312 168.885 10.3672C168.283 10.2031 167.622 10.1211 166.902 10.1211C166.137 10.1211 165.439 10.2077 164.811 10.3809C164.182 10.554 163.63 10.7865 163.156 11.0781C162.682 11.3698 162.286 11.707 161.967 12.0898C161.657 12.4727 161.429 12.8783 161.283 13.3066H172.289ZM181.053 6.86719H185.1V8.23438C186.111 7.61458 187.096 7.1862 188.053 6.94922C189.019 6.70312 189.962 6.58008 190.883 6.58008C192.168 6.58008 193.348 6.78516 194.424 7.19531C195.499 7.60547 196.42 8.22526 197.186 9.05469C197.778 8.59896 198.361 8.21615 198.936 7.90625C199.51 7.58724 200.084 7.33203 200.658 7.14062C201.232 6.9401 201.816 6.79883 202.408 6.7168C203.001 6.62565 203.611 6.58008 204.24 6.58008C205.562 6.58008 206.76 6.76237 207.836 7.12695C208.911 7.48242 209.827 8.01562 210.584 8.72656C211.35 9.4375 211.938 10.3262 212.348 11.3926C212.767 12.4499 212.977 13.6758 212.977 15.0703V23H208.943V15.7266C208.943 14.8424 208.816 14.054 208.561 13.3613C208.314 12.6595 207.964 12.0716 207.508 11.5977C207.061 11.1146 206.523 10.75 205.895 10.5039C205.275 10.2487 204.591 10.1211 203.844 10.1211C203.434 10.1211 203.014 10.1621 202.586 10.2441C202.158 10.3171 201.738 10.4355 201.328 10.5996C200.927 10.7637 200.549 10.9733 200.193 11.2285C199.838 11.4746 199.528 11.7663 199.264 12.1035V23H195.23V15.7266C195.23 14.8424 195.103 14.054 194.848 13.3613C194.602 12.6595 194.251 12.0716 193.795 11.5977C193.348 11.1146 192.806 10.75 192.168 10.5039C191.539 10.2487 190.846 10.1211 190.09 10.1211C189.625 10.1211 189.156 10.1712 188.682 10.2715C188.217 10.3626 187.766 10.4948 187.328 10.668C186.9 10.8411 186.494 11.0508 186.111 11.2969C185.738 11.543 185.4 11.821 185.1 12.1309V23H181.053V6.86719ZM217.311 17.9141C217.311 17.1393 217.479 16.4329 217.816 15.7949C218.154 15.1569 218.66 14.61 219.334 14.1543C220.008 13.6895 220.847 13.334 221.85 13.0879C222.861 12.8327 224.037 12.7051 225.377 12.7051C226.37 12.7051 227.414 12.778 228.508 12.9238C229.611 13.0697 230.745 13.293 231.912 13.5938C231.867 13.0833 231.712 12.6139 231.447 12.1855C231.183 11.748 230.814 11.3743 230.34 11.0645C229.875 10.7454 229.31 10.4993 228.645 10.3262C227.988 10.153 227.241 10.0664 226.402 10.0664C225.947 10.0664 225.445 10.0938 224.898 10.1484C224.352 10.2031 223.786 10.2852 223.203 10.3945C222.62 10.5039 222.041 10.6406 221.467 10.8047C220.902 10.9688 220.373 11.1647 219.881 11.3926L218.65 8.07031C219.261 7.85156 219.913 7.65104 220.605 7.46875C221.307 7.28646 222.023 7.13151 222.752 7.00391C223.481 6.86719 224.21 6.76237 224.939 6.68945C225.669 6.61654 226.375 6.58008 227.059 6.58008C230.076 6.58008 232.318 7.35026 233.785 8.89062C235.253 10.431 235.986 12.7917 235.986 15.9727V23H231.939V21.4824C231.52 21.7285 231.06 21.9609 230.559 22.1797C230.066 22.3984 229.529 22.5898 228.945 22.7539C228.362 22.918 227.733 23.0456 227.059 23.1367C226.393 23.237 225.687 23.2871 224.939 23.2871C223.682 23.2871 222.574 23.1504 221.617 22.877C220.669 22.6035 219.876 22.2253 219.238 21.7422C218.6 21.2591 218.117 20.694 217.789 20.0469C217.47 19.3906 217.311 18.6797 217.311 17.9141ZM221.576 17.7773C221.576 18.0417 221.645 18.2969 221.781 18.543C221.918 18.7799 222.137 18.9941 222.438 19.1855C222.738 19.3678 223.121 19.5182 223.586 19.6367C224.06 19.7461 224.63 19.8008 225.295 19.8008C226.006 19.8008 226.694 19.737 227.359 19.6094C228.025 19.4818 228.645 19.3132 229.219 19.1035C229.793 18.8939 230.312 18.6523 230.777 18.3789C231.242 18.1055 231.63 17.8229 231.939 17.5312V16.8203C231.32 16.6471 230.704 16.5013 230.094 16.3828C229.492 16.2643 228.913 16.1732 228.357 16.1094C227.811 16.0365 227.291 15.9863 226.799 15.959C226.316 15.9316 225.892 15.918 225.527 15.918C224.771 15.918 224.142 15.9681 223.641 16.0684C223.139 16.1686 222.734 16.3053 222.424 16.4785C222.114 16.6426 221.895 16.8385 221.768 17.0664C221.64 17.2943 221.576 17.5312 221.576 17.7773Z" fill="white"/>
</svg>
